<svg width="15" height="15" viewBox="0 0 15 15" fill="none" xmlns="http://www.w3.org/2000/svg">
<path d="M0.701262 8.43645C0.526164 8.18852 0.432508 7.89228 0.433264 7.58877C0.43402 7.28526 0.529153 6.9895 0.705485 6.74244C0.888421 6.492 1.14172 6.30205 1.43442 6.19794L3.36651 5.56902C3.85079 5.40763 4.29091 5.13588 4.65211 4.77522C5.01331 4.41456 5.2857 3.97488 5.44777 3.4909L6.08102 1.53379C6.18579 1.24444 6.37874 0.995245 6.63266 0.821331C6.88658 0.647417 7.18868 0.557548 7.49638 0.564385C7.80409 0.571222 8.1019 0.674421 8.34784 0.859441C8.59379 1.04446 8.77547 1.30197 8.86728 1.5957L9.49771 3.5303C9.65894 4.01476 9.93066 4.45509 10.2914 4.81649C10.6521 5.17789 11.0919 5.45045 11.5762 5.61263L13.5294 6.24859C13.8171 6.35099 14.0658 6.54052 14.2408 6.79082C14.4158 7.04111 14.5084 7.33972 14.5058 7.64509C14.5032 7.95047 14.4054 8.24744 14.2261 8.49468C14.0468 8.74192 13.7949 8.92714 13.5054 9.02457L11.5353 9.66756C11.0641 9.82897 10.6357 10.0952 10.2822 10.4461C9.92879 10.7971 9.65959 11.2236 9.4949 11.6936L8.86588 13.6493C8.76324 13.9369 8.57359 14.1854 8.32327 14.3603C8.07294 14.5353 7.77435 14.6279 7.46896 14.6254C7.16357 14.623 6.86652 14.5255 6.61906 14.3465C6.37161 14.1676 6.18601 13.916 6.08805 13.6268L5.46184 11.6936C5.30024 11.2067 5.02658 10.7645 4.66291 10.4026C4.29923 10.0407 3.85567 9.76916 3.36792 9.60987L1.41049 8.97392C1.12342 8.87261 0.875756 8.68408 0.701262 8.43645Z" fill="#9547A5"/>
</svg>

