<svg width="14" height="14" viewBox="0 0 14 14" fill="none" xmlns="http://www.w3.org/2000/svg">
<path d="M6.83969 0.668797C7.08485 0.529979 7.36715 0.470788 7.64749 0.499425C7.92783 0.528062 8.19233 0.643108 8.40436 0.828629C8.61891 1.02056 8.7711 1.27188 8.84037 1.55166L9.2437 3.39317C9.34826 3.85508 9.55885 4.28639 9.85883 4.65303C10.1588 5.01967 10.54 5.3116 10.9722 5.50577L12.7221 6.2705C12.9798 6.39386 13.1923 6.59491 13.3296 6.84533C13.4669 7.09574 13.5221 7.3829 13.4875 7.66633C13.4529 7.94976 13.3302 8.21518 13.1366 8.42519C12.943 8.6352 12.6884 8.77921 12.4086 8.83694L10.5633 9.24084C10.1009 9.34508 9.66908 9.55538 9.30202 9.85511C8.93495 10.1548 8.64268 10.5358 8.4483 10.9679L7.6811 12.7124C7.56003 12.9686 7.36205 13.1808 7.11471 13.3193C6.86738 13.4578 6.58298 13.5158 6.30109 13.4853C6.0192 13.4547 5.75383 13.3371 5.5419 13.1489C5.32998 12.9606 5.18203 12.711 5.11864 12.4348L4.7058 10.5569C4.60001 10.1071 4.39349 9.68703 4.10177 9.32845C3.81005 8.96988 3.44074 8.6821 3.02164 8.4868L1.27267 7.72609C1.01641 7.60487 0.804259 7.40692 0.665678 7.15973C0.527097 6.91254 0.468959 6.62837 0.499335 6.34668C0.529711 6.06499 0.647093 5.79974 0.835186 5.58778C1.02328 5.37581 1.27275 5.22763 1.54896 5.16382L3.3926 4.76369C3.85732 4.65933 4.29102 4.44741 4.65883 4.145C5.02665 3.84258 5.31829 3.45811 5.51032 3.0225L6.2779 1.27405C6.3979 1.01837 6.59486 0.807086 6.83969 0.668797Z" fill="#9547A5"/>
</svg>
