<svg width="26" height="26" viewBox="0 0 26 26" fill="none" xmlns="http://www.w3.org/2000/svg">
<path d="M7.29587 1.64609C7.62064 1.18856 8.07968 0.843225 8.60941 0.657932C9.13914 0.472638 9.71334 0.45655 10.2525 0.611893C10.8016 0.776664 11.2884 1.10123 11.6498 1.54722L13.9335 4.52706C14.5125 5.27165 15.2568 5.87144 16.1076 6.27906C16.9584 6.68667 17.8925 6.89096 18.836 6.87579L22.6379 6.77584C23.2068 6.7805 23.7599 6.96348 24.2192 7.29898C24.6784 7.63449 25.0207 8.10562 25.1979 8.64598C25.375 9.18634 25.378 9.7687 25.2064 10.311C25.0349 10.8533 24.6975 11.3282 24.2417 11.6688L21.2554 13.9567C20.5097 14.5355 19.9088 15.2797 19.5002 16.1304C19.0916 16.9812 18.8865 17.9152 18.9011 18.8586L18.9921 22.6529C18.9903 23.2173 18.8126 23.7671 18.4837 24.2259C18.1547 24.6847 17.6909 25.0297 17.1568 25.2129C16.6227 25.3961 16.0447 25.4083 15.5035 25.248C14.9622 25.0876 14.4844 24.7625 14.1367 24.318L11.8051 21.2806C11.2341 20.5588 10.5067 19.9759 9.67757 19.5758C8.84846 19.1758 7.93927 18.969 7.01846 18.971L3.22165 19.0774C2.65709 19.0754 2.10723 18.8978 1.64841 18.5691C1.18959 18.2405 0.844579 17.7772 0.661275 17.2436C0.47797 16.7099 0.465466 16.1324 0.6255 15.5912C0.785533 15.05 1.11016 14.572 1.55432 14.2234L4.54072 11.9437C5.29053 11.3627 5.89351 10.614 6.30119 9.75783C6.70886 8.90163 6.90983 7.96183 6.88794 7.01402L6.79436 3.21233C6.79465 2.64985 6.97126 2.10238 7.29587 1.64609Z" fill="#9547A5"/>
</svg>
