<svg width="41" height="41" viewBox="0 0 41 41" fill="none" xmlns="http://www.w3.org/2000/svg">
<path d="M16.92 22.4195C15.88 22.4195 15.032 21.4745 15.032 20.3185C15.032 19.1625 15.859 18.2165 16.921 18.2165C17.971 18.2165 18.831 19.1615 18.81 20.3185C18.81 21.4745 17.971 22.4195 16.92 22.4195ZM23.894 22.4185C22.854 22.4185 22.004 21.4735 22.004 20.3175C22.004 19.1615 22.833 18.2155 23.894 18.2155C24.944 18.2155 25.804 19.1605 25.784 20.3175C25.784 21.4735 24.955 22.4185 23.894 22.4185ZM18.525 12.8945L18.217 12.3315L17.583 12.4375C16.1464 12.6777 14.7481 13.1081 13.425 13.7175L13.197 13.8225L13.055 14.0325C10.442 17.8855 9.72505 21.6805 10.08 25.4075L10.119 25.8145L10.449 26.0545C11.9861 27.1826 13.7031 28.0424 15.527 28.5975L16.317 28.8395L17.43 26.1235C19.34 26.5955 21.46 26.5955 23.369 26.1235L24.476 28.8405L25.266 28.5985C27.0916 28.0448 28.8095 27.1841 30.346 26.0535L30.673 25.8155L30.713 25.4135C31.149 21.0935 30.016 17.3305 27.755 14.0295L27.613 13.8215L27.385 13.7175C26.0625 13.1106 24.6658 12.6803 23.231 12.4375L22.613 12.3345L22.299 12.8765C22.211 13.0265 22.122 13.1965 22.036 13.3695C20.9512 13.2583 19.8579 13.2583 18.773 13.3695C18.688 13.1995 18.603 13.0355 18.525 12.8945ZM15.115 25.1835C15.312 25.2975 15.52 25.4095 15.725 25.5115L15.276 26.6075C14.0615 26.1651 12.9093 25.5674 11.848 24.8295C11.623 21.6915 12.261 18.5245 14.412 15.2595C15.3199 14.8601 16.2661 14.5542 17.236 14.3465C17.296 14.4715 17.352 14.5945 17.398 14.7025L17.671 15.3455L18.363 15.2445C19.7191 15.0458 21.097 15.0458 22.453 15.2445L23.143 15.3445L23.415 14.7025C23.462 14.5905 23.517 14.4685 23.575 14.3465C24.552 14.5565 25.498 14.8665 26.403 15.2615C28.278 18.0815 29.224 21.2275 28.949 24.8285C27.8872 25.5669 26.7343 26.1649 25.519 26.6075L25.074 25.5125C25.28 25.4105 25.488 25.2985 25.687 25.1835C26.177 24.9015 26.704 24.5495 27.04 24.2135L25.76 22.9335C25.597 23.0975 25.237 23.3535 24.783 23.6155C24.339 23.8715 23.898 24.0785 23.616 24.1715C21.613 24.8345 19.188 24.8345 17.184 24.1715C16.903 24.0785 16.462 23.8715 16.018 23.6155C15.564 23.3545 15.204 23.0975 15.04 22.9335L13.76 24.2135C14.097 24.5495 14.625 24.9015 15.115 25.1835Z" fill="#358BB9"/>
</svg>
