<svg width="41" height="41" viewBox="0 0 41 41" fill="none" xmlns="http://www.w3.org/2000/svg">
<path fill-rule="evenodd" clip-rule="evenodd" d="M19.5341 11.5079C20.6124 10.4295 22.075 9.82373 23.6 9.82373H26.6C27.0142 9.82373 27.35 10.1595 27.35 10.5737V14.5737C27.35 14.9879 27.0142 15.3237 26.6 15.3237H23.6C23.5337 15.3237 23.4701 15.3501 23.4232 15.397C23.3763 15.4438 23.35 15.5074 23.35 15.5737V17.8237H26.6C26.8309 17.8237 27.049 17.9301 27.1911 18.1122C27.3333 18.2942 27.3836 18.5316 27.3276 18.7556L26.3276 22.7556C26.2441 23.0895 25.9441 23.3237 25.6 23.3237H23.35V30.5737C23.35 30.9879 23.0142 31.3237 22.6 31.3237H18.6C18.1858 31.3237 17.85 30.9879 17.85 30.5737V23.3237H15.6C15.1858 23.3237 14.85 22.9879 14.85 22.5737V18.5737C14.85 18.1595 15.1858 17.8237 15.6 17.8237H17.85V15.5737C17.85 14.0487 18.4558 12.5862 19.5341 11.5079ZM23.6 11.3237C22.4728 11.3237 21.3918 11.7715 20.5948 12.5685C19.7977 13.3656 19.35 14.4466 19.35 15.5737V18.5737C19.35 18.9879 19.0142 19.3237 18.6 19.3237H16.35V21.8237H18.6C19.0142 21.8237 19.35 22.1595 19.35 22.5737V29.8237H21.85V22.5737C21.85 22.1595 22.1858 21.8237 22.6 21.8237H25.0144L25.6394 19.3237H22.6C22.1858 19.3237 21.85 18.9879 21.85 18.5737V15.5737C21.85 15.1096 22.0344 14.6645 22.3625 14.3363C22.6907 14.0081 23.1358 13.8237 23.6 13.8237H25.85V11.3237H23.6Z" fill="#358BB9"/>
</svg>
