<svg width="40" height="41" viewBox="0 0 40 41" fill="none" xmlns="http://www.w3.org/2000/svg">
<path d="M20.001 17.5737C19.2054 17.5737 18.4423 17.8898 17.8797 18.4524C17.3171 19.015 17.001 19.7781 17.001 20.5737C17.001 21.3694 17.3171 22.1324 17.8797 22.6951C18.4423 23.2577 19.2054 23.5737 20.001 23.5737C20.7967 23.5737 21.5597 23.2577 22.1223 22.6951C22.6849 22.1324 23.001 21.3694 23.001 20.5737C23.001 19.7781 22.6849 19.015 22.1223 18.4524C21.5597 17.8898 20.7967 17.5737 20.001 17.5737ZM20.001 15.5737C21.3271 15.5737 22.5989 16.1005 23.5365 17.0382C24.4742 17.9759 25.001 19.2476 25.001 20.5737C25.001 21.8998 24.4742 23.1716 23.5365 24.1093C22.5989 25.0469 21.3271 25.5737 20.001 25.5737C18.6749 25.5737 17.4031 25.0469 16.4655 24.1093C15.5278 23.1716 15.001 21.8998 15.001 20.5737C15.001 19.2476 15.5278 17.9759 16.4655 17.0382C17.4031 16.1005 18.6749 15.5737 20.001 15.5737ZM26.501 15.3237C26.501 15.6553 26.3693 15.9732 26.1349 16.2076C25.9005 16.442 25.5825 16.5737 25.251 16.5737C24.9195 16.5737 24.6015 16.442 24.3671 16.2076C24.1327 15.9732 24.001 15.6553 24.001 15.3237C24.001 14.9922 24.1327 14.6743 24.3671 14.4398C24.6015 14.2054 24.9195 14.0737 25.251 14.0737C25.5825 14.0737 25.9005 14.2054 26.1349 14.4398C26.3693 14.6743 26.501 14.9922 26.501 15.3237ZM20.001 12.5737C17.527 12.5737 17.123 12.5807 15.972 12.6317C15.188 12.6687 14.662 12.7737 14.174 12.9637C13.7658 13.1141 13.3967 13.3544 13.094 13.6667C12.7813 13.9693 12.5407 14.3385 12.39 14.7467C12.2 15.2367 12.095 15.7617 12.059 16.5447C12.007 17.6487 12 18.0347 12 20.5737C12 23.0487 12.007 23.4517 12.058 24.6027C12.095 25.3857 12.2 25.9127 12.389 26.3997C12.559 26.8347 12.759 27.1477 13.091 27.4797C13.428 27.8157 13.741 28.0167 14.171 28.1827C14.665 28.3737 15.191 28.4797 15.971 28.5157C17.075 28.5677 17.461 28.5737 20 28.5737C22.475 28.5737 22.878 28.5667 24.029 28.5157C24.811 28.4787 25.337 28.3737 25.826 28.1847C26.2342 28.0344 26.6033 27.7941 26.906 27.4817C27.243 27.1457 27.444 26.8327 27.61 26.4017C27.8 25.9097 27.906 25.3837 27.942 24.6017C27.994 23.4987 28 23.1117 28 20.5737C28 18.0997 27.993 17.6957 27.942 16.5447C27.905 15.7627 27.799 15.2347 27.61 14.7467C27.4596 14.3386 27.2194 13.9695 26.907 13.6667C26.6044 13.354 26.2353 13.1134 25.827 12.9627C25.337 12.7727 24.811 12.6677 24.029 12.6317C22.926 12.5797 22.54 12.5737 20 12.5737M20 10.5737C22.717 10.5737 23.056 10.5837 24.123 10.6337C25.187 10.6837 25.913 10.8507 26.55 11.0987C27.21 11.3527 27.766 11.6967 28.322 12.2517C28.8307 12.7515 29.2242 13.3562 29.475 14.0237C29.722 14.6607 29.89 15.3867 29.94 16.4517C29.987 17.5177 30 17.8567 30 20.5737C30 23.2907 29.99 23.6297 29.94 24.6957C29.89 25.7617 29.722 26.4857 29.475 27.1237C29.2242 27.7913 28.8307 28.396 28.322 28.8957C27.8223 29.4044 27.2175 29.7979 26.55 30.0487C25.913 30.2957 25.187 30.4637 24.123 30.5137C23.056 30.5607 22.717 30.5737 20 30.5737C17.283 30.5737 16.944 30.5637 15.877 30.5137C14.813 30.4637 14.088 30.2957 13.45 30.0487C12.7825 29.7979 12.1777 29.4044 11.678 28.8957C11.1693 28.396 10.7758 27.7913 10.525 27.1237C10.277 26.4867 10.11 25.7607 10.06 24.6957C10.012 23.6297 10 23.2907 10 20.5737C10 17.8567 10.01 17.5177 10.06 16.4517C10.11 15.3857 10.277 14.6617 10.525 14.0237C10.7758 13.3562 11.1693 12.7515 11.678 12.2517C12.1777 11.743 12.7825 11.3495 13.45 11.0987C14.087 10.8507 14.812 10.6837 15.877 10.6337C16.945 10.5867 17.284 10.5737 20.001 10.5737" fill="#358BB9"/>
</svg>
