<svg width="40" height="41" viewBox="0 0 40 41" fill="none" xmlns="http://www.w3.org/2000/svg">
<path fill-rule="evenodd" clip-rule="evenodd" d="M13 14.5737C12.7348 14.5737 12.4804 14.6791 12.2929 14.8666C12.2197 14.9398 12.159 15.0232 12.1123 15.1134L20 20.3719L27.8877 15.1134C27.841 15.0232 27.7803 14.9398 27.7071 14.8666C27.5196 14.6791 27.2652 14.5737 27 14.5737H13ZM28 17.4422L20.5547 22.4058C20.2188 22.6297 19.7812 22.6297 19.4453 22.4058L12 17.4422V25.5737C12 25.8389 12.1054 26.0933 12.2929 26.2808C12.4804 26.4684 12.7348 26.5737 13 26.5737H27C27.2652 26.5737 27.5196 26.4684 27.7071 26.2808C27.8946 26.0933 28 25.8389 28 25.5737V17.4422ZM10.8787 13.4524C11.4413 12.8898 12.2044 12.5737 13 12.5737H27C27.7957 12.5737 28.5587 12.8898 29.1213 13.4524C29.6839 14.015 30 14.7781 30 15.5737V25.5737C30 26.3694 29.6839 27.1324 29.1213 27.6951C28.5587 28.2577 27.7957 28.5737 27 28.5737H13C12.2043 28.5737 11.4413 28.2577 10.8787 27.6951C10.3161 27.1324 10 26.3694 10 25.5737V15.5737C10 14.7781 10.3161 14.015 10.8787 13.4524Z" fill="#358BB9"/>
</svg>
