<svg width="41" height="41" viewBox="0 0 41 41" fill="none" xmlns="http://www.w3.org/2000/svg">
<g clip-path="url(#clip0_3244_3434)">
<path d="M20.2 10.5737C25.7229 10.5737 30.2 15.0507 30.2 20.5737C30.2 26.0967 25.7229 30.5737 20.2 30.5737C18.4979 30.5761 16.8237 30.1423 15.337 29.3137L15.032 29.1357L12 30.0277C11.835 30.0764 11.6603 30.082 11.4925 30.0442C11.3247 30.0064 11.1693 29.9264 11.0411 29.8117C10.9129 29.697 10.8161 29.5515 10.7599 29.3889C10.7037 29.2263 10.6899 29.0521 10.72 28.8827L10.746 28.7737L11.638 25.7417C10.695 24.183 10.1976 22.3955 10.2 20.5737C10.2 15.0507 14.677 10.5737 20.2 10.5737ZM20.2 12.5737C18.7676 12.5735 17.3614 12.9578 16.1283 13.6865C14.8952 14.4153 13.8803 15.4618 13.1897 16.7167C12.4991 17.9716 12.1581 19.3889 12.2023 20.8206C12.2465 22.2522 12.6743 23.6458 13.441 24.8557C13.639 25.1677 13.724 25.5517 13.657 25.9327L13.618 26.0957L13.177 27.5967L14.678 27.1557C15.111 27.0277 15.561 27.1057 15.918 27.3327C16.9663 27.9965 18.1546 28.4074 19.3891 28.5328C20.6236 28.6582 21.8703 28.4947 23.0307 28.0553C24.1911 27.6159 25.2333 26.9126 26.0751 26.001C26.9169 25.0894 27.5351 23.9945 27.8808 22.8028C28.2266 21.6112 28.2904 20.3554 28.0672 19.1348C27.844 17.9143 27.34 16.7623 26.5949 15.7701C25.8499 14.7779 24.8843 13.9726 23.7744 13.4178C22.6645 12.8631 21.4408 12.5741 20.2 12.5737ZM17.302 15.7577C17.4128 15.7103 17.534 15.6922 17.6538 15.7054C17.7736 15.7185 17.888 15.7624 17.986 15.8327C18.49 16.2007 18.89 16.6947 19.234 17.1767L19.561 17.6507L19.714 17.8757C19.8026 18.0047 19.8461 18.1593 19.8378 18.3155C19.8294 18.4718 19.7697 18.6209 19.668 18.7397L19.593 18.8157L18.669 19.5017C18.625 19.5343 18.5941 19.5815 18.5818 19.6349C18.5695 19.6882 18.5767 19.7442 18.602 19.7927C18.812 20.1727 19.183 20.7397 19.609 21.1657C20.036 21.5917 20.629 21.9877 21.035 22.2207C21.123 22.2707 21.229 22.2547 21.301 22.1897L21.339 22.1447L21.94 21.2297C22.0501 21.0825 22.2131 20.9838 22.3946 20.9544C22.576 20.9249 22.7619 20.967 22.913 21.0717L23.4559 21.4507C23.9959 21.8357 24.515 22.2497 24.926 22.7747C25.002 22.8734 25.0503 22.9906 25.066 23.1141C25.0816 23.2377 25.064 23.3632 25.015 23.4777C24.619 24.4017 23.6159 25.1887 22.5739 25.1507L22.415 25.1407L22.224 25.1227L22.116 25.1087L21.878 25.0687C20.954 24.8947 19.473 24.3707 17.938 22.8367C16.404 21.3017 15.88 19.8207 15.706 18.8967L15.666 18.6587L15.641 18.4507L15.628 18.2757L15.624 18.2007C15.586 17.1567 16.377 16.1537 17.302 15.7577Z" fill="#358BB9"/>
</g>
<defs>
<clipPath id="clip0_3244_3434">
<rect width="24" height="24" fill="white" transform="translate(8.19995 8.57373)"/>
</clipPath>
</defs>
</svg>
